<?xml version="1.0" encoding="UTF-8"?>
<svg xmlns="http://www.w3.org/2000/svg" version="1.1" viewBox="0 0 1814.17 1814.17">
  <!-- Generator: Adobe Illustrator 29.0.0, SVG Export Plug-In . SVG Version: 2.1.0 Build 186)  -->
  <defs>
    <style>
      .st0 {
        fill: none;
      }
    </style>
  </defs>
  <g id="Warstwa_2_kopia">
    <rect class="st0" x="0" y="0" width="1814.17" height="1814.17"/>
  </g>
  <g id="Warstwa_4">
    <g>
      <path d="M1670.41,59.82c3.86-12.91,7.66-26.24,11.4-39.95-27.28-6.62-57.4-13.28-91.26-19.87h-67.77c1.54,15.34,2.81,30.14,3.86,44.35.2.01.4.03.6.04,48.25,3.5,96.28,8.78,143.17,15.43Z"/>
      <path d="M1535.32,888.29c-2.41-2.04-4.67-4.08-6.79-6.11-6.25,4.33-12.49,8.99-18.68,13.95,41.08,43.97,65.24,80.07,65.22,88.93-.17,83.66-122.31,96.1-197.8,96.63-3.46,9.7-6.49,19.5-9.05,29.39,123.51-6.96,262.7-8.8,387.92-7.71-.53-7.3-1.11-14.55-1.77-21.76-123.13-39.03-166.03-148.38-219.05-193.32Z"/>
      <path d="M1406.72,1358.06c6.16,15.69,12.68,32.35,19.42,50.25,45.86,27.14,66.41,57.81,41.52,88.45-2.55,3.14-5.12,6.3-7.71,9.47,9.45,30.34,17.62,59.75,24.69,88.16,54.04-10.67,135.64-18.71,250.5-20.31,3.95-27.59,7.43-55.57,10.35-83.77-83.16-29.73-181.76-70.77-338.77-132.24Z"/>
      <path d="M1590.55,1814.17c-21.45-4.18-44.38-8.33-69.06-12.43.45,4.19.88,8.32,1.29,12.43h67.77Z"/>
      <path d="M1409.15,1619.7c8.98-6.3,23.98-12.62,45.71-18.47-5.78-17.79-12.56-38.28-20.83-63.84-80.05,93.99-178.4,183.69-335.16,166.13-3.91,32.03-7.6,68.65-11.03,110.64h414.85c-.64-5.25-1.34-10.53-2.12-15.83-5.35-.85-10.79-1.7-16.3-2.54-72.11-11.06-255.91-49.3-75.13-176.09Z"/>
      <path d="M1269.7,1349.72c40.95,10.34,79.3,22.67,111.68,36.39-34.44-65.99-74.12-63.47-111.68-36.39Z"/>
      <path d="M1267.01,676.69c7.74.55,15.4-1.01,22.95-4.36-21.23-5.07-42.39-10.57-62.71-16.07,13.13,12.34,26.49,19.48,39.76,20.43Z"/>
      <path d="M1506.53,42.91c-.8-14.1-2.07-28.42-3.84-42.92h-414.86c-.64,7.82-1.27,15.81-1.89,24-.79,10.39-1.41,20.86-1.88,31.39,134.86-29.99,331.12-18.85,422.46-12.47Z"/>
      <path d="M1219.67,429.43c-37-8.41-73.13-23.6-106.42-43.11,2.56,11.83,5.25,23.46,8.07,34.85,12.33,3.47,25.55,6.78,39.83,9.8,87.91,18.59,169.66,54.42,232.34,93.82,18.1-41.24,33.87-83.89,46.52-118.11,1.55-4.18,3.17-8.57,4.85-13.16-85.99,33.67-143.67,54.43-225.19,35.9Z"/>
      <path d="M1436.53,504.2c-4.1,12.58-8.22,26.56-11.89,41.57,73.64,53.27,109.86,108.56,78.62,134.08-17,13.89-48.58,17.25-87.22,14.42,5.97,34.01,18.84,67.49,42.1,97.58,7.54,9.75,26.14,17.47,49.82,22.57,20.76-43.12,107.72-73.75,206.84-76.35,2.96-17.26,1.92-35.41-1.35-55.03-105.23-19.81-133.96-43.33-164.14-66.79-38.83-30.18-95.18-70.67-112.79-112.03Z"/>
      <path d="M1546.19,389.93c50.6-15.63,87.87-27.7,117.57-37.42-1.8-11.56-4.04-22.44-6.86-32.17-19.33,5.31-39.07,11.13-59.23,17.52-33.45,10.6-63.1,21.2-89.96,31.31-13.37,17.39-25.94,35.55-36.12,52.68,17.79-11.2,42.19-21.92,74.6-31.93Z"/>
      <path d="M0,285.77v23.89c19.04-3.87,41.24-7.91,69.24-12.64,46-7.78,90.34-10.2,132.32-8.98.64-7.64,1.25-15.21,1.85-22.72-56.17,2.36-124.57,7.39-203.41,20.46Z"/>
      <path d="M0,57.04v27.97c79.67,16.66,152.28,36.46,212.19,56.89.64-10.39,1.24-20.63,1.81-30.74C128.33,98.7,71.14,79.22,0,57.04Z"/>
      <path d="M123.23,709.42c-47.09-3.56-87.83-7.43-123.24-11.56v47.21c40.26,6.93,79.64,19.09,114.75,37.47,9.97-21.71,18.71-46.64,26.23-71.94-5.94-.34-11.85-.73-17.75-1.18Z"/>
      <path d="M158.45,1551.37c-59.23-10.72-108.2-22.6-158.46-38.09v60.7c64.54.68,137.64,3.17,220.02,7.95-.24-7.05-.51-13.95-.81-20.71-19.05-2.71-39.27-5.96-60.75-9.85Z"/>
      <path d="M1814.17,85.01v-27.97c-33.04-10.3-69.08-21.18-112.38-32.21-3.05,12.33-5.93,25.03-8.63,38.33,41.59,6.34,82.13,13.72,121.01,21.85Z"/>
      <path d="M1814.17,745.08v-47.21c-19.45-2.27-37.3-4.61-53.7-7.02,5.79,18.52,11.4,34.88,16.81,49.33,12.32,1.17,24.65,2.8,36.9,4.9Z"/>
      <path d="M1814.17,309.67v-23.89c-43.08,7.14-89.26,16.67-138.29,29.49.97,10.61,2.17,21.29,3.62,32.11,55.59-18.2,83.89-27.37,134.68-37.7Z"/>
      <path d="M1017.06,1189.81c1.14-17.8,26.75-32.22,69.48-43.83,11.32-22.17,21.92-42.87,31.61-62.77-166.14-1.58-299.45-13.35-406.17-30.58-.04,32.83.31,66.89,1.09,102.24,113.71,18.33,190.5,41.82,203.9,71.23,23.92,52.48-75.53,123.04-183.43,186.55,2.3,5.95,4.86,11.65,7.71,17.02,75.21-44.26,164.9-85.25,236.29-103.26,25.96-32.15,50.99-68.26,71.79-107.11-25.88-12.15-32.9-19.68-32.28-29.5Z"/>
      <path d="M891.08,337.22c-27.72,21.43-58.33,34.04-89.57,40.57-12.32,33.08-24.36,71.99-35.42,117.66,7.03,10.75,10.63,21.75,9.84,32.92-1.09,15.32-10.44,30.76-26.53,45.84-4.59,24.88-8.89,51.34-12.81,79.49,68.19-21.16,122.8-37.78,215.71-37.45,76.56.27,134.51,17.48,196.85,45.37-2.92-9.66-5.98-19.48-9.12-29.62-12.03-3.32-22.85-6.22-32.09-8.49-156.04-38.38-382.3-120.36-314.61-173.74,148.27-116.92,181.62-77.29,293.49-39.32-2.3-14.43-4.53-29.59-6.67-45.57-75.58-53.87-130.4-128.24-136.24-187.82-7.52,5.65-15.5,11.94-23.98,18.93,3.54,58.66-8.04,125.16-28.84,141.25Z"/>
      <path d="M1814.17,1573.98v-60.7c-7.22-2.23-14.46-4.53-21.77-6.91-4.91,24.33-9.85,46.68-14.78,67.41,11.86,0,24.05.07,36.55.2Z"/>
      <path d="M627.28,684.94c3.18-14.69,6.23-30.41,9.16-47.03-60.2,23.51-135.43,43.38-216.61,56.67,5.39,8.29,10.8,16.38,16.21,24.19,80.34-9.6,141.34-21.54,191.24-33.84Z"/>
      <path d="M379.85,241.61c-3.25,23.11-59.1,19.65-156.77,22.96.07,8.59.3,16.73.68,24.45,122.59,7.35,223,44.47,282.17,66.34,45.51,16.83,105.97,39.18,158.14,65.19,1.37-14.68,2.69-29.61,3.95-44.76-48.64-9.49-89.6-25.39-111.57-34.09-48.18-19.08-121.95-76.88-156.87-116.26-100.52-113.37,133.65-95.31,212.89-106.23,26.21-3.61,50.22-8.7,72.43-14.05.62-13.88,1.21-27.8,1.77-41.75-173.77,44.22-265.25,65.99-387.44,56.91-23.22-1.73-44.48-3.85-64.22-6.32-1.74,11.87-3.26,23.29-4.58,34.28,94.57,33.93,152.86,68.85,149.42,93.32Z"/>
      <path d="M661.56,1043.74c-42.22-8.12-79.72-17.1-112.97-26.57-11.16,29-25.04,65.95-42.85,112.85,61.26,5.52,118.44,11.88,169.56,19.14-3.8-38.84-8.35-74.41-13.73-105.42Z"/>
      <path d="M601.65,1536.66c16.74-21.74,49.03-48.4,89.5-75.56-.14-7.92-.3-15.83-.48-23.73-68.57,38.82-134.44,73.48-168.31,97.57-18.28,13-63.28,41.33-189.47,36.91-2.25,5.82-4.45,11.53-6.59,17.16,96.39,7.2,203.71,17.24,322.84,30.69,3.36.38,19.65,2.73,43.06,7.04.03-5.38.05-10.79.06-16.21-69.17-18.41-115.61-41.43-90.62-73.87Z"/>
      <path d="M455.94,1125.78c9.17-43.91,15.97-89.31,19.74-132.43-97.18-36.39-143.72-75.1-163.54-97.91-158.41-182.33-37.69-161.66,38.94-168.09,20.19-1.69,39.34-3.52,57.57-5.47-3.89-7.94-7.88-15.86-11.94-23.7-77.12,11.28-158.71,16.53-237.32,13.34-5.72,30.52-11.12,60.69-16.48,87.78,9.06,6.11,17.72,12.72,25.89,19.86,112.98,98.7,180.55,137.38,211.19,206.61,30.86,69.74-151.58,79.57-284.18,74.8.4,1.94.82,3.87,1.25,5.8,13.06.4,25.71.83,37.91,1.28,110.67,4.11,220.31,10.08,320.97,18.15Z"/>
      <path d="M1111.28,1244.81c-5.15,26.77-8.95,52.54-10.42,75.64,44.61,4.27,91.37,11.69,136.19,21.56,9.31-11.78,18.63-24.77,27.8-38.81-67.34-25.72-117.09-44.29-153.57-58.39Z"/>
      <path d="M1415.81,810c-10.21-30.79-31.72-67.14-70.2-115.92-20.34-25.79-44.82-8.91-69.47,30.49,8.61,4.35,17.45,8.79,26.57,13.3,40.9,20.25,79.05,45.52,113.1,72.13Z"/>
      <path d="M1319.99,1080.41c-59.51,2.1-115.62,3.05-168.54,2.98-4.55,16.22-9.37,33.54-14.17,51.43,57.75-10.41,132.27-17.78,214.52-22.78,2.92-10.03,5.63-20.17,8.12-30.42-21.08-.32-36.15-1.34-39.93-1.21Z"/>
      <path d="M891.08,106.53c9.37,8.02,16.31,21.98,21.1,39.21,18.55-22.66,39.43-48.01,64.05-76.18C994.17,49.01,1008.79,25.43,1020.43,0h-137.66c-35.69,16.89-90.5,36.52-174.98,58.04-4.72,1.2-9.36,2.39-13.97,3.56.09,13.72.38,27.52.92,41.16,83.87-20.9,141.64-43.03,196.34,3.78Z"/>
      <path d="M728.04,1619.26c-2.1,4.32-4.1,8.76-6.01,13.32,93.55,19.43,241.61,60.75,228.38,123.94-1.94,9.27-8.66,29.73-67.63,57.65h137.66c16.83-36.79,27.42-77.46,32.78-118.49-22.68-5.2-46.48-12.53-71.52-22.24-46.94-18.21-161.35-33.32-253.66-54.17Z"/>
      <path d="M230.43,148.29c-5.94-2.13-12.02-4.26-18.24-6.38-2.41,39.09-5.32,80.2-8.78,123.41,6.73-.28,13.29-.53,19.67-.74-.25-32.11,1.83-70.45,7.35-116.28Z"/>
      <path d="M1068.02,251.84c3.51,41.81,7.61,79.24,12.12,113.03,10.65,7.59,21.71,14.77,33.11,21.45-22.17-102.48-34.19-219.86-29.18-330.94-69.42,15.44-122.57,41.77-136.75,85.27-3.65,11.19-4.69,23.45-3.42,36.4,134.89-101.44,118.26,4.97,124.12,74.79Z"/>
      <path d="M1693.16,63.16c-7.55-1.15-15.13-2.27-22.75-3.35-40.49,135.57-86.49,225.02-116.64,220.79-28.79-4.05-16.35-89.75-27.13-236.26-5.95-.43-12.68-.92-20.11-1.44,8.53,150.05-34.45,276.41-61.67,350.62,19.32-7.56,40.08-15.78,62.85-24.35,20.83-27.09,43.58-52.31,62.22-68.83,49.88-44.23,74.32-23.66,86.98,20,6.37-1.75,12.69-3.44,18.97-5.09-3.44-37.79-3.82-74.85-.82-115.27,4.05-54.5,10.28-98.2,18.1-136.83Z"/>
      <path d="M1676.16,513.24c9.6,69.65,29.61,123.76,37.3,169.79,14.21,2.68,29.81,5.28,47,7.82-7.42-23.71-15.14-50.96-23.12-82.29-28.33-111.19-48.27-189.44-57.85-261.18-5.01,1.64-10.24,3.35-15.73,5.15,8.49,54.46,7.35,124.12,12.4,160.72Z"/>
      <path d="M1471.59,421.86c-41.14,25.89-46.99,54.31-35.06,82.34,6.38-19.6,12.7-35.77,17.14-46.99,4.26-10.75,10.44-22.77,17.92-35.35Z"/>
      <path d="M258.72,502.41c38.71,29.82,93.03,108.92,137.99,195.77,7.75-1.13,15.46-2.33,23.12-3.59-62.53-96.19-123.02-220.32-159.39-271.46-10.89-15.31-32.52-49.35-36.68-134.1-7.32-.44-14.73-.77-22.21-.98-6.67,80.14-15.19,167.28-25.88,261.87-.88,7.83-12.45,85.89-34.69,160.7,6.12.35,12.25.66,18.41.91,22.62-120.76,50.15-246.98,99.33-209.1Z"/>
      <path d="M749.4,574.2c5.22-28.26,10.82-54.46,16.7-78.75-17.6-26.92-56.69-52.29-102.02-74.9-7.62,81.77-16.78,155.84-27.63,217.36,49.49-19.32,88.82-41.1,112.95-63.71Z"/>
      <path d="M769.62,280.75c-52.06,23.04-70.73-72.78-74.87-178-3.24.81-6.52,1.61-9.83,2.41-4.18,93.83-9.76,185.69-16.88,270.63,41.26,8.05,88.04,11.48,133.49,1.99,36.53-98.1,75.5-144.98,98.42-164.89,6.96-6.04,13.61-11.68,19.99-16.92-1.09-18.06-3.62-35.37-7.75-50.24-55.84,68.2-90.59,112.01-142.56,135.01Z"/>
      <path d="M219.1,1814.17h36.76c16.94-76.45,38.02-140.22,70.45-225.16-37.03-2.77-72.45-5.12-106.29-7.08,2.24,64.53,2.24,141.5-.91,232.24Z"/>
      <path d="M688.95,1814.17h5.75c1.52-44.82,4.72-84.27,7.9-108.37,3.63-27.51,10.42-51.7,19.43-73.21-10.77-2.24-20.82-4.19-29.82-5.84-.33,67.16-1.52,131.09-3.25,187.43Z"/>
      <path d="M1498.35,1784.17c.8,4.74,1.53,9.46,2.22,14.17,7.11,1.13,14.07,2.26,20.91,3.4-6.63-61.12-17.74-130.62-36.85-207.36-11.07,2.19-20.98,4.48-29.79,6.85,19.82,61.02,27.82,90.27,43.5,182.93Z"/>
      <path d="M1687.11,1814.17h21.15c19.47-71.16,44.26-134.82,69.36-240.39-14.64,0-28.79.1-42.48.29-12.28,85.78-29.13,167.68-48.03,240.1Z"/>
      <path d="M694.7,0h-5.75c-.38,12.29-.78,24.22-1.21,35.74-.34,9.24-.7,18.46-1.07,27.68,2.37-.6,4.75-1.21,7.15-1.82-.14-21.01.2-41.82.87-61.6Z"/>
      <path d="M244,59.21c3.77-20.85,7.69-40.41,11.86-59.22h-36.76c-1.22,34.98-2.9,72.01-5.1,111.17,6.82.99,13.82,1.94,21.02,2.84,2.53-17.3,5.51-35.54,8.99-54.79Z"/>
      <path d="M1118.15,1083.22c10.96.1,22.05.17,33.3.18,8.3-29.58,15.71-55.53,20.43-74.71,23.76-96.6,64.23-220.1,104.27-284.12-47.73-24.12-88.22-45.61-127-62.96,17.47,57.71,30.28,109.78,29.99,191.44-.32,89.98-24.03,154.25-60.99,230.16Z"/>
      <path d="M605.57,917.82c24.64,1.58,42.82,50.05,55.99,125.92,16.11,3.1,32.91,6.07,50.42,8.9.18-160.79,9.71-292.03,24.61-398.94-31.75,9.85-66.44,20.68-109.31,31.25-16.02,74.06-35.24,122.41-58.01,132.79-38.09,17.36-85.7-30.27-133.23-98.95-8.89,1.06-18.01,2.1-27.38,3.1,41.31,84.32,71.93,172.31,69.83,227.33-.55,14.33-1.49,29.1-2.81,44.14,21.69,8.12,45.9,16.13,72.9,23.82,31.61-82.1,41.42-100.35,56.98-99.35Z"/>
      <path d="M1415.81,810c26.76,80.72-24.22,123.31-51.41,251.9-1.4,6.61-2.89,13.18-4.48,19.72,5.42.08,11.23.12,17.35.07,26.42-74.1,77.68-141.61,132.58-185.56-25.43-27.22-57.34-57.45-94.03-86.13Z"/>
      <path d="M1708.26,0h-21.15c-1.75,6.7-3.52,13.34-5.3,19.87,6.83,1.66,13.48,3.31,19.97,4.97,2.08-8.43,4.25-16.68,6.48-24.84Z"/>
      <path d="M464.7,1237.12c15.65-40.46,29.21-75.97,41.03-107.11-16.32-1.47-32.93-2.88-49.79-4.23-32.58,156.02-95.02,293.23-157.32,242.63-83.37-67.71-175.21-145.46-201.56-262.06-30.4-.93-62.99-1.69-97.07-2.25v278.3c11.57-73.81,50.41-251.13,175.68-72.5,18.41,26.25,37.05,103.89,43.53,251.32,43.82,6.22,81.42,9.5,113.7,10.63,31.69-82.01,73.67-184.41,131.8-334.73Z"/>
      <path d="M714.96,1220.75c-.79-22.44-1.42-44.39-1.89-65.87-12.18-1.96-24.79-3.87-37.78-5.71,8.34,85.11,13.12,185.83,15.38,288.21,14.26-8.08,28.64-16.33,42.88-24.71-27.81-71.87-18.19-180.8-18.59-191.91Z"/>
      <path d="M1264.85,1303.2c21.92,8.37,45.71,17.5,71.52,27.48,24.71,9.55,48.11,18.67,70.36,27.38-36.49-93.01-60.19-152.24-40.78-237.63.71-3.12,1.47-6.24,2.28-9.35-5.51.31-10.98.63-16.42.96-21.16,72.74-52.99,139.15-86.95,191.16Z"/>
      <path d="M1086.54,1145.98c-9.23,18.07-18.94,37.11-29.04,57.49-2.64,5.33-5.37,10.6-8.17,15.83,14.28,6.71,34.3,14.82,61.95,25.51,6.97-36.21,16.42-74.24,26-109.99-18.8,3.39-35.81,7.1-50.74,11.15Z"/>
      <path d="M1750.98,1428c-1.51,20.83-3.35,41.63-5.5,62.3,16.11,5.76,31.64,11.1,46.91,16.07,7.22-35.76,14.38-75.8,21.36-121.34.13-.86.27-1.74.41-2.63v-278.3c-18.92-.31-38.3-.56-58.03-.73,9.16,127.13-.86,265.44-5.15,324.62Z"/>
      <path d="M1269.7,1349.72c-10.72-2.71-21.63-5.28-32.65-7.7-49.2,62.29-98.01,90.79-121.52,62.01-13.45-16.46-17.03-46.6-14.67-83.57-17.91-1.71-35.46-2.92-52.41-3.56-19.9-.76-44.11,2.77-70.91,9.52-73.03,90.43-153.38,149.44-167.24,149.41-32.74-.07-54.58-18.82-69.06-46.15-17.64,10.38-34.48,20.94-50.11,31.43.92,50.22,1.25,100.58,1.12,149.43,11.38,3.03,23.37,5.93,35.77,8.73,46.76-96.29,138.77-135.67,179.04-183.18,92.02-108.57,169.76,78.89,146.14,259.6,15.75,3.61,30.96,6.2,45.65,7.85,22.08-180.93,51.22-216.07,80.27-253.45,24.93-32.07,56.88-76.08,90.56-100.36Z"/>
      <path d="M1405.44,1446.95c11.21,36.3,20.59,65.74,28.59,90.44,8.85-10.39,17.47-20.82,25.92-31.18-.81-2.59-1.62-5.18-2.45-7.79-10.62-33.52-21.24-63.22-31.37-90.13-13.03-7.71-28.1-15.14-44.76-22.19,8.37,16.03,16.43,36.09,24.07,60.84Z"/>
      <path d="M1121.32,421.17c-12.34-3.47-23.78-7.09-34.51-10.73,16.18,101.33,36.05,166.25,53.21,221.55,24.89,6.87,55,15.56,87.23,24.27-40.56-38.13-78.96-126.02-105.93-235.09Z"/>
      <path d="M1289.96,672.33c44.08,10.53,88.44,19.17,126.09,21.94-9.06-51.62-2.18-104.45,8.59-148.49-9.75-7.05-20.16-14.07-31.15-20.98-29.47,67.13-65.12,130.49-103.53,147.53Z"/>
      <path d="M121.94,882.45c7.3-18.81,14.09-48.45,20.96-83.16-9.01-6.08-18.42-11.65-28.16-16.75-20.26,44.13-45.55,74.97-75.89,68.62-7.04-1.47-20.54-5.72-38.86-33.51v276.25c23.63,2.71,57.66,5.29,95.82,6.66-12.48-60.89-7.17-132.27,26.13-218.11Z"/>
      <path d="M1714.82,738.06c-3.21,18.73-11.11,36.41-25.97,53.78-26.88,31.42-120.42,35.57-180.87,22.57-9.8,20.36-4.85,43.5,20.56,67.78,45.04-31.21,90.89-45.61,126.2-34.1,62.21,20.28,89.32,120.24,99.64,233.53,15.55,4.93,32.37,8.75,50.67,11.16,2.84.37,5.89.75,9.13,1.12v-276.25c-10.75-16.31-23.16-40.73-36.9-77.48-21.02-1.99-41.99-2.65-62.45-2.12Z"/>
    </g>
  </g>
</svg>