<?xml version="1.0" encoding="utf-8"?>
<!-- Generator: Adobe Illustrator 30.0.0, SVG Export Plug-In . SVG Version: 9.03 Build 0)  -->
<svg version="1.0" id="Layer_1" xmlns="http://www.w3.org/2000/svg" xmlns:xlink="http://www.w3.org/1999/xlink" x="0px" y="0px"
	 viewBox="0 0 578.17 105.44" style="enable-background:new 0 0 578.17 105.44;" xml:space="preserve">
<style type="text/css">
</style>
<g>
	<path class="st0" d="M212.03,105.19l10.9-11.53l-25.84-26.04h-1.17l0-2V15.88l13.49,12.95l28.48-28.7h50.19L273.74,15.3
		l26.47,26.67v50.57l-13.03-12.51l-24.96,25.15H212.03z M237.47,55.76v22.5l14.11-14.92h18.21l-11.13-10.68v-21.4l-10.13,10.71
		H223.1L237.47,55.76z"/>
</g>
<g>
	<g>
		<polygon points="18.33,105.19 18.33,29.18 0,29.18 0,0.26 58.64,0.26 58.64,29.18 40.31,29.18 40.31,105.19 		"/>
		<polygon points="100.48,105.19 100.48,64.36 84.83,64.36 84.83,105.19 62.86,105.19 62.86,0.26 84.83,0.26 84.83,35.57 
			100.48,35.57 100.48,0.26 122.53,0.26 122.53,105.19 		"/>
		<polygon points="130.44,105.19 130.44,0.26 182.61,0.26 182.61,25.8 152.46,25.8 152.46,37.85 180.43,37.85 180.43,62.43 
			152.46,62.43 152.46,78.33 183.49,78.33 183.49,105.19 		"/>
	</g>
</g>
<g>
	<g>
		<polygon points="359.23,105.19 350.59,52.11 341.98,105.19 320.64,105.19 307,0.25 328.38,0.25 333.2,43.9 340.24,0.25 
			360.9,0.25 367.97,43.87 372.79,0.25 394.08,0.25 380.56,105.19 		"/>
		<path d="M435.3,105.19l-2.95-16.66h-17.33l-2.88,16.66h-22.78L412.41,0.25h23.1l23.04,104.93H435.3z M427.85,62.7l-4.11-22.9
			l-4.07,22.9H427.85z"/>
		<path d="M498.06,105.19l-10.18-32.24c-1.51-4.9-2.5-6.57-2.95-7.12c-0.79-0.93-1.62-1.46-2.52-1.57v40.94H460.1V0.25h32.38
			c6.03,0,10.58,0.89,13.89,2.73c3.37,1.87,6.09,5.3,8.08,10.19c1.91,4.7,2.88,10.45,2.88,17.11c0,5.8-0.74,10.89-2.2,15.14
			c-1.49,4.32-3.58,7.9-6.21,10.62c-1.04,1.07-2.31,2.04-3.79,2.89c0.91,0.72,1.66,1.44,2.25,2.18c0.78,0.97,1.79,2.78,3.16,5.71
			c1.33,2.83,2.2,4.97,2.66,6.56l9.6,31.81H498.06z M488.09,41.15c0.15,0,1.03-0.06,4.11-1.24c0.73-0.25,1.33-0.96,1.85-2.12
			c0.64-1.43,0.97-3.12,0.97-5.03c0-2.83-0.49-4.97-1.46-6.37c-0.81-1.16-2.54-1.75-5.16-1.75h-6.01v16.52H488.09z"/>
		<path d="M523.88,105.19V0.25h32.3c7.31,0,12.88,3.03,16.53,9.01c3.47,5.66,5.22,13.73,5.22,23.97c0,10.52-1.91,18.92-5.68,24.95
			c-3.95,6.33-10.04,9.55-18.09,9.55h-7.98v37.46H523.88z M548.65,43.29c2.83,0,4.72-0.74,5.75-2.26c1.19-1.74,1.79-4.06,1.79-6.9
			c0-2.81-0.54-5.19-1.6-7.08c-0.32-0.56-1.28-2.28-5.22-2.28h-3.19v18.51H548.65z"/>
	</g>
</g>
</svg>
